MetaMessage('track_name', name='HALion Sonic SE 01', time=0)
note_on channel=0 note=72 velocity=100 time=0
note_off channel=0 note=72 velocity=64 time=480
note_on channel=0 note=74 velocity=100 time=0
note_off channel=0 note=74 velocity=64 time=480
note_on channel=0 note=76 velocity=100 time=0
note_off channel=0 note=76 velocity=64 time=480
note_on channel=0 note=72 velocity=100 time=480
note_off channel=0 note=72 velocity=64 time=480
note_on channel=0 note=74 velocity=100 time=0
note_off channel=0 note=74 velocity=64 time=480
note_on channel=0 note=76 velocity=100 time=0
note_off channel=0 note=76 velocity=64 time=480
note_on channel=0 note=79 velocity=100 time=480
note_off channel=0 note=79 velocity=64 time=480
note_on channel=0 note=76 velocity=100 time=0
note_off channel=0 note=76 velocity=64 time=480
note_on channel=0 note=74 velocity=100 time=0
note_off channel=0 note=74 velocity=64 time=480
note_on channel=0 note=72 velocity=100 time=0
note_off channel=0 note=72 velocity=64 time=480
MetaMessage('end_of_track', time=0)


---


MetaMessage('set_tempo', tempo=500000, time=0)
note_on channel=0 note=60 velocity=100 time=0
note_off channel=0 note=60 velocity=64 time=480
note_on channel=0 note=60 velocity=100 time=0
note_off channel=0 note=60 velocity=64 time=480
note_on channel=0 note=60 velocity=100 time=0
note_off channel=0 note=60 velocity=64 time=480
note_off channel=0 note=60 velocity=64 time=480
note_off channel=0 note=60 velocity=64 time=1920
note_on channel=0 note=72 velocity=100 time=0
note_off channel=0 note=72 velocity=64 time=480
note_on channel=0 note=74 velocity=100 time=0
note_off channel=0 note=74 velocity=64 time=480
note_on channel=0 note=76 velocity=100 time=0
note_off channel=0 note=76 velocity=64 time=480
note_off channel=0 note=60 velocity=64 time=480
note_on channel=0 note=60 velocity=100 time=0
note_off channel=0 note=60 velocity=64 time=480
note_on channel=0 note=60 velocity=100 time=0
note_off channel=0 note=60 velocity=64 time=480
note_on channel=0 note=60 velocity=100 time=0
note_off channel=0 note=60 velocity=64 time=480
note_off channel=0 note=60 velocity=64 time=480
note_off channel=0 note=60 velocity=64 time=1920
note_on channel=0 note=72 velocity=100 time=0
note_off channel=0 note=72 velocity=64 time=480
note_on channel=0 note=74 velocity=100 time=0
note_off channel=0 note=74 velocity=64 time=480
note_on channel=0 note=76 velocity=100 time=0
note_off channel=0 note=76 velocity=64 time=480
note_off channel=0 note=60 velocity=64 time=480
note_on channel=0 note=60 velocity=100 time=0
note_off channel=0 note=60 velocity=64 time=480
note_on channel=0 note=60 velocity=100 time=0
note_off channel=0 note=60 velocity=64 time=480
note_on channel=0 note=60 velocity=100 time=0
note_off channel=0 note=60 velocity=64 time=480
note_on channel=0 note=60 velocity=100 time=0
note_off channel=0 note=60 velocity=64 time=480
note_off channel=0 note=60 velocity=64 time=1920
note_on channel=0 note=79 velocity=100 time=0
note_off channel=0 note=79 velocity=64 time=480
note_on channel=0 note=76 velocity=100 time=0
note_off channel=0 note=76 velocity=64 time=480
note_on channel=0 note=74 velocity=100 time=0
note_off channel=0 note=74 velocity=64 time=480
note_on channel=0 note=72 velocity=100 time=0
note_off channel=0 note=60 velocity=64 time=480
